<svg width="25" height="24" viewBox="0 0 25 24" fill="none" xmlns="http://www.w3.org/2000/svg">
<g id="cart icon">
<g id="Group 87">
<path id="Vector 9" d="M1.76294 2.52631H3.28169C3.73621 2.52631 4.15173 2.78311 4.355 3.18965L5.15352 4.78669M8.5441 12.133H17.434C17.8755 12.133 18.2813 11.8906 18.4906 11.5019L21.1539 6.55561C21.5844 5.75614 21.0054 4.78669 20.0974 4.78669H5.15352M8.5441 12.133L5.15352 4.78669M8.5441 12.133L6.89683 15.4275C6.86488 15.4914 6.83851 15.5577 6.82235 15.6273C6.77161 15.8459 6.67986 16.3581 6.84881 16.6537C7.04576 16.9984 7.65723 17.1542 7.88885 17.202C7.94887 17.2144 8.00978 17.2188 8.07107 17.2188H20.9762" stroke="#858585" stroke-width="1.5"/>
<circle id="Ellipse 6" cx="7.41407" cy="21.1082" r="2.26039" fill="#858585"/>
<circle id="Ellipse 7" cx="18.7161" cy="21.1082" r="2.26039" fill="#858585"/>
</g>
</g>
</svg>
