<svg width="24" height="23" viewBox="0 0 24 23" fill="none" xmlns="http://www.w3.org/2000/svg">
<g id="cup 2">
<path id="Vector 5" d="M16.0998 5.61189V1.24667C16.0998 1.13621 16.0102 1.04667 15.8998 1.04667H1.7C1.58954 1.04667 1.5 1.13621 1.5 1.24667V17.8268C1.5 17.84 1.50131 17.8532 1.50401 17.8661C1.54391 18.0575 1.87946 19.6112 2.41249 20.4032C2.94024 21.1873 4.10478 21.8831 4.34548 22.0217C4.37481 22.0385 4.40729 22.0467 4.44113 22.0467H13.1586C13.1925 22.0467 13.225 22.0385 13.2543 22.0217C13.495 21.8831 14.6595 21.1873 15.1873 20.4032C15.7203 19.6112 16.0559 18.0575 16.0958 17.8661C16.0985 17.8532 16.0998 17.84 16.0998 17.8268V17.1162M16.0998 5.61189C16.0998 5.61189 17.786 3.57405 19.1414 3.60319C20.2571 3.62718 21.0169 4.0303 21.7268 5.06406C22.3242 5.93403 22.4152 6.67895 22.4872 7.80319C22.6024 9.60197 21.9282 10.7999 20.9664 12.1858C20.206 13.2815 19.7138 13.6946 18.8372 14.5597C17.7171 15.6652 16.0998 17.1162 16.0998 17.1162M16.0998 5.61189V17.1162" stroke="#433118" stroke-width="1.5"/>
</g>
</svg>
