<svg width="20" height="27" viewBox="0 0 20 27" fill="none" xmlns="http://www.w3.org/2000/svg">
<g id="cup 4">
<path id="cup 4_2" d="M17.0288 10.9826H18.3C18.4105 10.9826 18.5 11.0721 18.5 11.1826V13.1864C18.5 13.2969 18.4105 13.3864 18.3 13.3864H16.7653M17.0288 10.9826H2.80769M17.0288 10.9826C16.8109 9.86077 16.1135 7.32872 15.0673 6.17487C13.7596 4.73257 11.9615 4.09154 9.50962 4.09154C7.05769 4.09154 6.17901 4.74462 4.76923 6.17487C3.33592 7.629 2.91667 9.80735 2.80769 10.9826M16.7653 13.3864L16.5385 16.7518M16.7653 13.3864H3.06122M16.5385 16.7518L15.4305 25.8708C15.4183 25.9712 15.333 26.0467 15.2319 26.0467H4.76502C4.66521 26.0467 4.58067 25.9731 4.56692 25.8742L3.29808 16.7518M16.5385 16.7518H3.29808M3.06122 13.3864H1.7C1.58954 13.3864 1.5 13.2969 1.5 13.1864V11.1826C1.5 11.0721 1.58954 10.9826 1.7 10.9826H2.80769M3.06122 13.3864L3.29808 16.7518M3.78846 1.04667L8.86763 1.82473C8.95706 1.83843 9.02616 1.91046 9.03613 2.00038L9.83654 9.21975" stroke="#433118" stroke-width="1.5"/>
</g>
</svg>
