<svg width="26" height="22" viewBox="0 0 26 22" fill="none" xmlns="http://www.w3.org/2000/svg">
<g id="cup 1">
<path id="Vector 2" d="M21.2182 3.62093V1.24667C21.2182 1.13621 21.1286 1.04667 21.0182 1.04667H2.09482C1.9761 1.04667 1.88339 1.1489 1.89289 1.26723C1.97308 2.26528 1.99473 4.06207 2.16364 5.4031C2.4329 7.54088 2.44955 8.55101 3.18182 10.3536C4.36792 13.2733 7.2303 15.1061 8.2 16.2942M21.2182 3.62093C20.9758 5.46911 21.0672 8.0044 19.9091 10.3536C19.6721 10.8344 19.2392 11.5417 19.2392 11.5417M21.2182 3.62093C21.2182 3.62093 23.1091 3.55492 23.4 3.62093C23.6909 3.68693 24.3309 3.97736 24.5636 4.61103C24.8545 5.4031 25 5.79914 25 6.19518C25 6.59122 24.8626 7.36694 24.5636 7.97736C24.2044 8.71099 23.6424 9.03347 23.2545 9.3635C22.8667 9.69353 22.3817 10.0067 21.8 10.3536C20.8323 10.9308 19.2392 11.5417 19.2392 11.5417M14.6 16.2942H22.1933C22.3247 16.2942 22.4199 16.4183 22.3788 16.5432C22.1282 17.3045 21.5741 18.4818 21.1446 19.0665C20.76 19.5901 19.5843 20.7291 19.3109 20.9918C19.2739 21.0274 19.2251 21.0467 19.1737 21.0467H4.26161C4.22147 21.0467 4.18266 21.0351 4.15014 21.0116C3.71341 20.6956 2.52736 19.6442 2.16364 19.0665C1.50946 18.0275 1.18219 16.9884 1.0593 16.5332C1.02621 16.4106 1.11935 16.2942 1.24633 16.2942H8.2M14.6 16.2942C15.3493 15.1284 19.2392 11.5417 19.2392 11.5417M14.6 16.2942H8.2" stroke="#433118" stroke-width="1.5"/>
</g>
</svg>
