<svg width="20" height="23" viewBox="0 0 20 23" fill="none" xmlns="http://www.w3.org/2000/svg">
<g id="cup 3">
<path id="cup 3_2" d="M16.7653 3.86766V3.06166V1.85117C16.7653 1.74071 16.6758 1.65117 16.5653 1.65117H8.26531L3.2843 1.07258C3.1655 1.05878 3.06122 1.15164 3.06122 1.27125V3.06166V3.86766M16.7653 3.86766H18.3C18.4105 3.86766 18.5 3.9572 18.5 4.06766V6.48865C18.5 6.59911 18.4105 6.68865 18.3 6.68865H17.1122M16.7653 3.86766H3.06122M17.1122 6.68865L16.9388 10.9201M17.1122 6.68865H2.54082M16.9388 10.9201H3.00785M16.9388 10.9201L15.6869 21.8694C15.6754 21.9704 15.5899 22.0467 15.4882 22.0467H4.51092C4.40962 22.0467 4.32431 21.9709 4.31233 21.8703L3.00785 10.9201M2.54082 6.68865H1.7C1.58954 6.68865 1.5 6.59911 1.5 6.48865V4.06766C1.5 3.9572 1.58954 3.86766 1.7 3.86766H3.06122M2.54082 6.68865L3.00785 10.9201" stroke="#433118" stroke-width="1.5"/>
</g>
</svg>
