<svg width="27" height="26" viewBox="0 0 27 26" fill="none" xmlns="http://www.w3.org/2000/svg">
<g id="akar-icons:google-fill">
<g id="Group">
<path id="Vector" d="M22.603 10.998C22.726 11.657 22.793 12.346 22.793 13.065C22.793 18.689 19.029 22.688 13.344 22.688C12.0512 22.6884 10.7709 22.434 9.5764 21.9395C8.38189 21.4449 7.29654 20.7198 6.38236 19.8056C5.46818 18.8915 4.7431 17.8061 4.24853 16.6116C3.75396 15.4171 3.49961 14.1368 3.5 12.844C3.49961 11.5512 3.75396 10.2709 4.24853 9.0764C4.7431 7.88189 5.46818 6.79654 6.38236 5.88236C7.29654 4.96818 8.38189 4.2431 9.5764 3.74853C10.7709 3.25396 12.0512 2.99961 13.344 3C16.002 3 18.223 3.978 19.927 5.566L17.152 8.341V8.334C16.119 7.35 14.808 6.845 13.344 6.845C10.096 6.845 7.456 9.589 7.456 12.838C7.456 16.086 10.096 18.836 13.344 18.836C16.291 18.836 18.297 17.151 18.709 14.837H13.344V10.998H22.604H22.603Z" fill="#222222"/>
</g>
</g>
</svg>
