<svg width="25" height="25" viewBox="0 0 25 25" fill="none" xmlns="http://www.w3.org/2000/svg">
<g id="home icon">
<path id="Vector 8" d="M11.6296 3.81162L4.32958 10.7414C4.0909 10.968 3.95575 11.2827 3.95575 11.6117V19.8273C3.95575 20.4901 4.49301 21.0273 5.15575 21.0273H8.42242C9.08516 21.0273 9.62242 20.4901 9.62242 19.8273V15.3998C9.62242 14.737 10.1597 14.1998 10.8224 14.1998H14.0891C14.7518 14.1998 15.2891 14.737 15.2891 15.3998V19.8273C15.2891 20.4901 15.8263 21.0273 16.4891 21.0273H19.7557C20.4185 21.0273 20.9557 20.4901 20.9557 19.8273V11.6117C20.9557 11.2827 20.8206 10.968 20.5819 10.7414L13.2819 3.81162C12.8189 3.37203 12.0926 3.37203 11.6296 3.81162Z" fill="#CA7200" stroke="#CA7200" stroke-width="1.8"/>
</g>
</svg>
