<svg width="25" height="25" viewBox="0 0 25 25" fill="none" xmlns="http://www.w3.org/2000/svg">
<g id="profile icon">
<g id="Group 88">
<path id="Ellipse 8" d="M17.1378 5.45566C17.1378 7.76418 15.2253 9.6605 12.8352 9.6605C10.445 9.6605 8.53253 7.76418 8.53253 5.45566C8.53253 3.14715 10.445 1.25082 12.8352 1.25082C15.2253 1.25082 17.1378 3.14715 17.1378 5.45566Z" stroke="#858585" stroke-width="1.5"/>
<path id="Vector 10" d="M12.8336 12.8875C9.4093 12.8875 5.98499 14.3738 4.615 15.044C4.22495 15.2348 3.99152 15.6339 3.99152 16.0681V17.8811C3.99152 18.5439 4.52878 19.0811 5.19152 19.0811H20.4757C21.1385 19.0811 21.6757 18.5439 21.6757 17.8811V16.0681C21.6757 15.6339 21.4423 15.2348 21.0522 15.044C19.6823 14.3738 16.2579 12.8875 12.8336 12.8875Z" stroke="#858585" stroke-width="1.5"/>
</g>
</g>
</svg>
